<svg id="visual" viewBox="0 0 300 100" width="300" height="100" xmlns="http://www.w3.org/2000/svg" xmlns:xlink="http://www.w3.org/1999/xlink" version="1.1"><path d="M0 11L27 14L55 16L82 9L109 10L136 12L164 13L191 11L218 15L245 9L273 11L300 10L300 0L273 0L245 0L218 0L191 0L164 0L136 0L109 0L82 0L55 0L27 0L0 0Z" fill="#f7770f"></path><path d="M0 31L27 21L55 26L82 30L109 26L136 24L164 32L191 19L218 28L245 24L273 26L300 28L300 8L273 9L245 7L218 13L191 9L164 11L136 10L109 8L82 7L55 14L27 12L0 9Z" fill="#f98619"></path><path d="M0 45L27 36L55 50L82 51L109 40L136 38L164 44L191 31L218 44L245 49L273 38L300 54L300 26L273 24L245 22L218 26L191 17L164 30L136 22L109 24L82 28L55 24L27 19L0 29Z" fill="#fa9424"></path><path d="M0 79L27 53L55 81L82 66L109 62L136 72L164 58L191 60L218 83L245 66L273 78L300 81L300 52L273 36L245 47L218 42L191 29L164 42L136 36L109 38L82 49L55 48L27 34L0 43Z" fill="#fba230"></path><path d="M0 101L27 101L55 101L82 101L109 101L136 101L164 101L191 101L218 101L245 101L273 101L300 101L300 79L273 76L245 64L218 81L191 58L164 56L136 70L109 60L82 64L55 79L27 51L0 77Z" fill="#fcaf3c"></path></svg>