<svg id="visual" viewBox="0 0 300 100" width="300" height="100" xmlns="http://www.w3.org/2000/svg" xmlns:xlink="http://www.w3.org/1999/xlink" version="1.1"><path d="M0 28L27 17L55 25L82 10L109 23L136 25L164 22L191 14L218 21L245 19L273 26L300 24L300 0L273 0L245 0L218 0L191 0L164 0L136 0L109 0L82 0L55 0L27 0L0 0Z" fill="#038373"></path><path d="M0 41L27 25L55 41L82 21L109 39L136 34L164 31L191 25L218 38L245 29L273 43L300 39L300 22L273 24L245 17L218 19L191 12L164 20L136 23L109 21L82 8L55 23L27 15L0 26Z" fill="#00957c"></path><path d="M0 49L27 40L55 50L82 38L109 48L136 51L164 51L191 39L218 53L245 43L273 50L300 53L300 37L273 41L245 27L218 36L191 23L164 29L136 32L109 37L82 19L55 39L27 23L0 39Z" fill="#00a784"></path><path d="M0 67L27 80L55 67L82 56L109 79L136 87L164 87L191 72L218 70L245 68L273 74L300 77L300 51L273 48L245 41L218 51L191 37L164 49L136 49L109 46L82 36L55 48L27 38L0 47Z" fill="#00b98a"></path><path d="M0 101L27 101L55 101L82 101L109 101L136 101L164 101L191 101L218 101L245 101L273 101L300 101L300 75L273 72L245 66L218 68L191 70L164 85L136 85L109 77L82 54L55 65L27 78L0 65Z" fill="#00cc8e"></path></svg>