<svg id="visual" viewBox="0 0 277 159" width="277" height="159" xmlns="http://www.w3.org/2000/svg" xmlns:xlink="http://www.w3.org/1999/xlink" version="1.1"><rect x="0" y="0" width="277" height="159" fill="#5ca998"></rect><path d="M0 123L6.7 120.3C13.3 117.7 26.7 112.3 39.8 108.3C53 104.3 66 101.7 79.2 100.7C92.3 99.7 105.7 100.3 118.8 103.7C132 107 145 113 158.2 115.5C171.3 118 184.7 117 197.8 114.5C211 112 224 108 237.2 106.7C250.3 105.3 263.7 106.7 270.3 107.3L277 108L277 160L270.3 160C263.7 160 250.3 160 237.2 160C224 160 211 160 197.8 160C184.7 160 171.3 160 158.2 160C145 160 132 160 118.8 160C105.7 160 92.3 160 79.2 160C66 160 53 160 39.8 160C26.7 160 13.3 160 6.7 160L0 160Z" fill="#199177" stroke-linecap="round" stroke-linejoin="miter"></path></svg>