<svg id="visual" viewBox="0 0 900 600" width="900" height="600" xmlns="http://www.w3.org/2000/svg" xmlns:xlink="http://www.w3.org/1999/xlink" version="1.1"><rect x="0" y="0" width="900" height="600" fill="#5ca998"></rect><path d="M0 465L21.5 455.5C43 446 86 427 128.8 412.2C171.7 397.3 214.3 386.7 257.2 382.7C300 378.7 343 381.3 385.8 394.2C428.7 407 471.3 430 514.2 439.5C557 449 600 445 642.8 435.5C685.7 426 728.3 411 771.2 405.7C814 400.3 857 404.7 878.5 406.8L900 409L900 601L878.5 601C857 601 814 601 771.2 601C728.3 601 685.7 601 642.8 601C600 601 557 601 514.2 601C471.3 601 428.7 601 385.8 601C343 601 300 601 257.2 601C214.3 601 171.7 601 128.8 601C86 601 43 601 21.5 601L0 601Z" fill="#199177" stroke-linecap="round" stroke-linejoin="miter"></path></svg>